HIERARCHY
ROOT Hips
{
	OFFSET 0.00000 0.00000 0.00000
	CHANNELS 6 Xposition Yposition Zposition Zrotation Yrotation Xrotation 
	JOINT LHipJoint
	{
		OFFSET 0 0 0
		CHANNELS 3 Zrotation Yrotation Xrotation
		JOINT LeftUpLeg
		{
			OFFSET 1.44960 -1.75505 0.85172
			CHANNELS 3 Zrotation Yrotation Xrotation
			JOINT LeftLeg
			{
				OFFSET 2.40573 -6.60971 0.00000
				CHANNELS 3 Zrotation Yrotation Xrotation
				JOINT LeftFoot
				{
					OFFSET 2.58773 -7.10974 0.00000
					CHANNELS 3 Zrotation Yrotation Xrotation
					JOINT LeftToeBase
					{
						OFFSET 0.18252 -0.50147 1.77316
						CHANNELS 3 Zrotation Yrotation Xrotation
						End Site
						{
							OFFSET 0.00000 -0.00000 0.92990
						}
					}
				}
			}
		}
	}
	JOINT RHipJoint
	{
		OFFSET 0 0 0
		CHANNELS 3 Zrotation Yrotation Xrotation
		JOINT RightUpLeg
		{
			OFFSET -1.40744 -1.75505 0.85172
			CHANNELS 3 Zrotation Yrotation Xrotation
			JOINT RightLeg
			{
				OFFSET -2.43714 -6.69600 0.00000
				CHANNELS 3 Zrotation Yrotation Xrotation
				JOINT RightFoot
				{
					OFFSET -2.51650 -6.91404 0.00000
					CHANNELS 3 Zrotation Yrotation Xrotation
					JOINT RightToeBase
					{
						OFFSET -0.25383 -0.69740 1.96384
						CHANNELS 3 Zrotation Yrotation Xrotation
						End Site
						{
							OFFSET -0.00000 -0.00000 1.04244
						}
					}
				}
			}
		}
	}
	JOINT LowerBack
	{
		OFFSET 0 0 0
		CHANNELS 3 Zrotation Yrotation Xrotation
		JOINT Spine
		{
			OFFSET 0.00579 2.14458 -0.24367
			CHANNELS 3 Zrotation Yrotation Xrotation
			JOINT Spine1
			{
				OFFSET 0.05899 2.16316 -0.04515
				CHANNELS 3 Zrotation Yrotation Xrotation
				JOINT Neck
				{
					OFFSET 0 0 0
					CHANNELS 3 Zrotation Yrotation Xrotation
					JOINT Neck1
					{
						OFFSET -0.01650 1.59577 0.24841
						CHANNELS 3 Zrotation Yrotation Xrotation
						JOINT Head
						{
							OFFSET -0.01016 1.63072 -0.17782
							CHANNELS 3 Zrotation Yrotation Xrotation
							End Site
							{
								OFFSET -0.00250 1.64111 -0.08717
							}
						}
					}
				}
				JOINT LeftShoulder
				{
					OFFSET 0 0 0
					CHANNELS 3 Zrotation Yrotation Xrotation
					JOINT LeftArm
					{
						OFFSET 3.17745 0.95174 -0.45729
						CHANNELS 3 Zrotation Yrotation Xrotation
						JOINT LeftForeArm
						{
							OFFSET 4.93485 -0.00000 0.00000
							CHANNELS 3 Zrotation Yrotation Xrotation
							JOINT LeftHand
							{
								OFFSET 3.41719 -0.00000 -0.00000
								CHANNELS 3 Zrotation Yrotation Xrotation
								JOINT LeftFingerBase
								{
									OFFSET 0 0 0
									CHANNELS 3 Zrotation Yrotation Xrotation
									JOINT LeftHandIndex1
									{
										OFFSET 0.62410 -0.00000 -0.00000
										CHANNELS 3 Zrotation Yrotation Xrotation
										End Site
										{
											OFFSET 0.50317 -0.00000 -0.00000
										}
									}
								}
								JOINT LThumb
								{
									OFFSET 0 0 0
									CHANNELS 3 Zrotation Yrotation Xrotation
									End Site
									{
										OFFSET 0.51085 -0.00000 0.51085
									}
								}
							}
						}
					}
				}
				JOINT RightShoulder
				{
					OFFSET 0 0 0
					CHANNELS 3 Zrotation Yrotation Xrotation
					JOINT RightArm
					{
						OFFSET -2.87924 1.13038 -0.75204
						CHANNELS 3 Zrotation Yrotation Xrotation
						JOINT RightForeArm
						{
							OFFSET -5.22034 -0.00000 0.00000
							CHANNELS 3 Zrotation Yrotation Xrotation
							JOINT RightHand
							{
								OFFSET -3.41809 -0.00000 -0.00000
								CHANNELS 3 Zrotation Yrotation Xrotation
								JOINT RightFingerBase
								{
									OFFSET 0 0 0
									CHANNELS 3 Zrotation Yrotation Xrotation
									JOINT RightHandIndex1
									{
										OFFSET -0.77534 -0.00000 -0.00000
										CHANNELS 3 Zrotation Yrotation Xrotation
										End Site
										{
											OFFSET -0.62510 -0.00000 -0.00000
										}
									}
								}
								JOINT RThumb
								{
									OFFSET 0 0 0
									CHANNELS 3 Zrotation Yrotation Xrotation
									End Site
									{
										OFFSET -0.63464 -0.00000 0.63464
									}
								}
							}
						}
					}
				}
			}
		}
	}
}
MOTION
Frames: 14
Frame Time: .0083333
1.8684 17.5755 -35.5367 0 0 0 0 0 0 -21 0 0 0 0 0 0 0 0 0 0 0 0 0 0 21 0 0 0 0 0 0 0 0 0 0 0 0 0 0 0 0 0 0 0 0 0 0 -16 0 0 21 0 0 11 0 0 0 -8 0 0 0 0 0 0 0 0 0 0 0 0 0 0 0 0 0 0 0 0 8 0 0 0 0 0 0 0 0 0 0 0 0 0 0 0 0 0
1.8684 17.5755 -35.5367 -2.5831 3.8432 4.1110 0.0000 0.0000 0.0000 -16.0308 -7.6470 -6.7851 1.5681 7.9016 22.4156 1.1704 -3.0548 -19.6631 0.0282 -1.0834 -2.9784 0.0000 0.0000 0.0000 19.9140 1.3971 -7.8656 -1.5899 -7.9537 22.5736 -1.1450 -4.7024 -22.4180 -0.0619 -1.6050 4.4151 -0.6056 -1.7190 2.8518 3.3946 -2.2164 -1.7873 3.9699 -1.0519 -3.2834 -2.4536 -2.7551 -16.2024 1.9238 -3.4718 12.6457 0.6594 -1.6284 6.5838 -0.0000 -0.0000 0.0000 -91.0071 6.6919 13.8469 13.4540 -21.9488 -2.6205 -0.0000 -0.0000 8.8209 9.4784 40.9986 6.2507 -7.1250 0.0000 -0.0000 -37.1413 67.9022 -21.5733 -0.0000 -0.0000 0.0000 85.0140 -4.7737 13.3507 -14.1496 22.9482 -2.8862 0.0000 -0.0000 -14.0329 -18.0385 15.3563 -4.9291 7.1250 -0.0000 -0.0000 6.4538 -13.9431 4.7393
1.8672 17.5814 -35.5340 -2.8061 3.8780 4.1083 0.0000 0.0000 0.0000 -15.7537 -7.5106 -6.8442 1.5638 7.8913 22.3845 1.1473 -3.0614 -19.4602 0.0924 -1.9600 -5.3952 0.0000 0.0000 0.0000 20.1782 1.4471 -7.9118 -1.5812 -7.9331 22.5110 -1.1032 -5.0757 -22.2821 -0.0280 -1.0807 2.9707 -0.4141 -1.6343 2.8043 3.4314 -2.0947 -1.7680 3.8914 -0.9955 -3.2509 -2.2292 -2.7516 -16.1406 1.7492 -3.4889 12.4715 0.5669 -1.6418 6.5103 0.0000 0.0000 0.0000 -90.9354 6.6155 14.2461 13.4668 -21.9674 -2.6253 -0.0000 -0.0000 8.6375 9.5465 41.1093 6.3099 -7.1250 0.0000 -0.0000 -37.2551 68.0077 -21.7326 0.0000 0.0000 0.0000 85.0856 -4.8326 13.0950 -14.0749 22.8416 -2.8571 0.0000 -0.0000 -14.0214 -17.9685 15.4159 -4.9273 7.1250 -0.0000 -0.0000 6.5029 -13.8885 4.7834
1.8686 17.5838 -35.5277 -2.6859 4.0797 4.1300 0.0000 0.0000 0.0000 -15.8851 -7.7065 -6.9019 1.5967 7.9701 22.6233 1.1821 -3.2277 -19.7341 0.0394 -1.2806 -3.5213 0.0000 0.0000 0.0000 20.0689 1.2668 -7.8264 -1.5577 -7.8767 22.3403 -1.0986 -5.1386 -22.2803 -0.0074 -0.5565 1.5293 -0.4851 -1.6556 2.7576 3.3715 -2.1280 -1.7899 3.8696 -1.0111 -3.2444 -2.6416 -2.6866 -16.3210 2.3081 -3.3980 12.7999 0.8193 -1.5671 6.6624 0.0000 0.0000 0.0000 -90.9559 6.7932 14.5469 13.6989 -22.3026 -2.7128 -0.0000 -0.0000 8.0932 10.0810 41.2855 6.6905 -7.1250 0.0000 -0.0000 -36.9978 68.3085 -21.8097 0.0000 0.0000 0.0000 85.0762 -5.0053 13.1242 -14.0038 22.7401 -2.8296 0.0000 -0.0000 -14.0047 -17.9246 15.7070 -5.0045 7.1250 -0.0000 -0.0000 6.5415 -13.5917 4.8535
1.8698 17.5582 -35.5325 -2.8359 4.0722 4.0661 0.0000 0.0000 0.0000 -15.7058 -7.6893 -7.1138 1.6489 8.0930 22.9969 1.2174 -3.5129 -19.9893 0.0141 -0.7658 -2.1047 0.0000 0.0000 0.0000 20.2474 1.1138 -7.7182 -1.5218 -7.7896 22.0768 -1.0564 -5.2995 -22.0133 -0.0003 -0.1085 0.2980 -0.3442 -1.5931 2.8114 3.4069 -2.0387 -1.7032 3.8220 -0.9705 -3.1949 -2.3046 -2.8093 -16.2006 1.9011 -3.5680 12.2321 0.6203 -1.6708 6.4493 -0.0000 0.0000 0.0000 -90.9933 6.6405 14.7666 13.8332 -22.4957 -2.7640 -0.0000 -0.0000 7.8259 9.9766 41.7417 6.6796 -7.1250 0.0000 -0.0000 -37.8938 68.6210 -22.6515 -0.0000 0.0000 0.0000 85.1110 -4.9279 12.9035 -13.9684 22.6895 -2.8159 0.0000 -0.0000 -13.8115 -17.9511 15.2382 -4.8671 7.1250 -0.0000 -0.0000 6.5092 -14.0744 4.7623
1.8707 17.5729 -35.5246 -2.6970 4.0656 4.1838 0.0000 0.0000 0.0000 -15.8615 -7.7180 -7.1705 1.6506 8.0970 23.0090 1.2062 -3.3085 -19.9277 0.0367 -1.2372 -3.4017 0.0000 0.0000 0.0000 20.0791 1.1428 -7.7708 -1.5189 -7.7826 22.0556 -1.0778 -5.1309 -22.0957 -0.0022 0.3010 -0.8271 -0.4668 -1.5698 2.6771 3.3661 -2.0148 -1.7464 3.8438 -0.9565 -3.1626 -2.7596 -2.7473 -16.3187 2.4553 -3.4705 12.5178 0.8793 -1.5959 6.5777 -0.0000 0.0000 0.0000 -90.9760 6.7090 14.9509 13.9077 -22.6026 -2.7925 -0.0000 -0.0000 7.7151 9.9709 41.5228 6.6474 -7.1250 0.0000 -0.0000 -37.5188 68.4542 -22.2682 -0.0000 0.0000 0.0000 85.0174 -4.9674 13.0367 -13.7726 22.4087 -2.7408 0.0000 -0.0000 -14.0637 -17.6779 15.8820 -4.9847 7.1250 -0.0000 -0.0000 6.7127 -13.4362 5.0044
1.8671 17.5364 -35.5300 -2.7319 4.2457 4.1855 0.0000 0.0000 0.0000 -15.7688 -7.7517 -7.3636 1.6798 8.1647 23.2155 1.2009 -3.4946 -19.8513 0.0522 -1.4740 -4.0541 0.0000 0.0000 0.0000 20.1984 0.8440 -7.7899 -1.4974 -7.7296 21.8957 -1.0192 -5.5148 -21.8223 -0.0398 1.2882 -3.5423 -0.4864 -1.5747 2.6780 3.4020 -2.0219 -1.7125 3.8916 -0.9599 -3.1257 -2.3715 -2.8634 -16.2333 2.0222 -3.6410 12.0743 0.6628 -1.6991 6.4093 -0.0000 0.0000 0.0000 -91.1075 6.6893 14.7720 14.2571 -23.1010 -2.9282 -0.0000 -0.0000 7.5915 8.5871 41.5816 5.7231 -7.1250 0.0000 -0.0000 -39.0399 68.0650 -22.9421 -0.0000 0.0000 0.0000 85.0773 -4.9962 12.8079 -13.8360 22.4997 -2.7650 0.0000 -0.0000 -13.8694 -16.2219 16.2076 -4.6426 7.1250 -0.0000 -0.0000 7.6968 -13.2484 5.7816
1.8688 17.5776 -35.5247 -2.7766 4.1908 4.2504 0.0000 0.0000 0.0000 -15.7428 -7.8397 -7.2472 1.6476 8.0900 22.9876 1.2082 -3.4472 -19.9221 0.0131 -0.7402 -2.0342 0.0000 0.0000 0.0000 20.1767 1.1467 -7.7525 -1.5181 -7.7805 22.0494 -1.1047 -4.9976 -22.2479 -0.0096 0.6333 -1.7404 -0.4543 -1.5018 2.5722 3.4215 -1.9257 -1.6425 3.8835 -0.9147 -3.0008 -2.7003 -2.8081 -16.6863 2.3624 -3.5414 12.5043 0.8282 -1.6322 6.6340 0.0000 0.0000 0.0000 -91.0939 6.4892 15.1159 14.3397 -23.2183 -2.9607 -0.0000 -0.0000 7.3022 8.5183 41.3873 5.6553 -7.1250 0.0000 -0.0000 -38.7783 67.8987 -22.6301 0.0000 0.0000 0.0000 85.0482 -4.8696 12.7224 -13.7557 22.3844 -2.7344 0.0000 -0.0000 -13.7696 -16.2871 15.6916 -4.5182 7.1250 -0.0000 -0.0000 7.6415 -13.7705 5.6545
1.8563 17.5704 -35.5173 -3.0798 4.1439 4.0604 0.0000 0.0000 0.0000 -15.3519 -7.6909 -7.2625 1.6945 8.1985 23.3186 1.2389 -3.5786 -20.1613 0.0135 -0.7495 -2.0599 0.0000 0.0000 0.0000 20.6401 1.5984 -7.2912 -1.4845 -7.6979 21.8001 -1.0590 -5.6641 -22.2667 -0.0215 0.9470 -2.6029 -0.3006 -1.4130 2.6834 3.5044 -1.7982 -1.5810 3.8791 -0.8536 -3.0111 -2.7927 -2.9350 -16.6014 2.5737 -3.7279 12.4957 0.8923 -1.7087 6.6280 0.0000 -0.0000 0.0000 -91.0732 6.5134 15.4914 14.5430 -23.5056 -3.0413 -0.0000 -0.0000 7.1171 8.2482 43.0005 5.6461 -7.1250 0.0000 -0.0000 -41.9405 68.9881 -25.6986 0.0000 -0.0000 0.0000 85.1235 -4.9441 12.4667 -13.7421 22.3648 -2.7292 0.0000 -0.0000 -13.6303 -17.6981 15.2490 -4.7975 7.1250 -0.0000 -0.0000 6.6804 -14.0883 4.8873
1.8717 17.5785 -35.5191 -2.6491 4.2040 4.2958 0.0000 0.0000 0.0000 -15.9031 -7.9357 -7.2416 1.6524 8.1010 23.0213 1.2137 -3.3763 -19.9807 0.0152 -0.7949 -2.1846 0.0000 0.0000 0.0000 20.0176 1.1313 -7.7577 -1.5104 -7.7615 21.9921 -1.0951 -5.0215 -22.1792 -0.0070 0.5401 -1.4841 -0.5699 -1.3691 2.4870 3.4029 -1.7552 -1.6103 3.9178 -0.8285 -2.9286 -2.8960 -2.9979 -16.7756 2.4576 -3.7653 12.5227 0.8653 -1.7403 6.6665 0.0000 -0.0000 0.0000 -91.1827 6.3718 15.8377 14.5727 -23.5474 -3.0532 -0.0000 -0.0000 6.8534 8.7080 42.1758 5.8714 -7.1250 0.0000 -0.0000 -39.9603 68.5412 -23.9600 0.0000 -0.0000 0.0000 84.9778 -4.8701 12.4110 -13.6220 22.1918 -2.6837 0.0000 -0.0000 -13.7639 -17.5986 15.3276 -4.7928 7.1250 -0.0000 -0.0000 6.7497 -14.0169 4.9490
1.8566 17.5311 -35.5233 -3.1394 4.2721 3.9986 0.0000 0.0000 0.0000 -15.2812 -7.7801 -7.1875 1.6807 8.1668 23.2218 1.2281 -3.6468 -20.0596 0.0118 -0.7009 -1.9261 0.0000 0.0000 0.0000 20.7573 1.2517 -7.4125 -1.4876 -7.7056 21.8233 -1.0027 -6.0374 -22.0176 -0.0569 1.5397 -4.2351 -0.2693 -1.3368 2.7916 3.5728 -1.6923 -1.5421 3.9299 -0.8005 -3.0382 -2.8535 -3.0211 -16.7592 2.4068 -3.8003 12.5793 0.8382 -1.7595 6.6811 -0.0000 -0.0000 0.0000 -91.2336 6.3803 16.2449 14.7462 -23.7913 -3.1228 -0.0000 -0.0000 6.4772 9.2763 41.6529 6.1954 -7.1250 0.0000 -0.0000 -38.4593 68.3336 -22.7867 -0.0000 -0.0000 0.0000 84.9831 -5.0340 12.4383 -13.6786 22.2734 -2.7051 0.0000 -0.0000 -13.7908 -16.5127 15.8361 -4.6251 7.1250 -0.0000 -0.0000 7.4933 -13.6004 5.5699
1.8612 17.5812 -35.5197 -3.0101 4.1386 4.1705 0.0000 0.0000 0.0000 -15.4708 -7.8943 -7.2000 1.6652 8.1308 23.1120 1.2229 -3.3641 -20.0610 0.0130 -0.7352 -2.0204 0.0000 0.0000 0.0000 20.5071 1.6953 -7.4080 -1.4995 -7.7349 21.9116 -1.0957 -5.4309 -22.4355 -0.0004 0.1270 -0.3491 -0.3777 -1.2364 2.6976 3.5294 -1.5641 -1.5850 3.9377 -0.7344 -3.0366 -2.7682 -3.0486 -17.0080 2.2663 -3.8309 12.7117 0.7720 -1.7799 6.7618 0.0000 0.0000 0.0000 -91.2435 6.3401 16.5431 14.8704 -23.9652 -3.1731 -0.0000 -0.0000 6.2528 9.3825 41.8282 6.2884 -7.1250 0.0000 -0.0000 -38.6569 68.4980 -23.0546 0.0000 0.0000 0.0000 84.9553 -5.1060 12.4642 -13.6621 22.2497 -2.6989 0.0000 -0.0000 -13.8515 -16.6215 15.7692 -4.6381 7.1250 -0.0000 -0.0000 7.4187 -13.6585 5.5044
1.8563 17.5721 -35.5209 -3.1824 4.2428 4.0751 0.0000 0.0000 0.0000 -15.2512 -7.9498 -7.2518 1.6995 8.2099 23.3534 1.2382 -3.4917 -20.1699 0.0090 -0.6120 -1.6818 0.0000 0.0000 0.0000 20.7537 1.6663 -7.2932 -1.4721 -7.6671 21.7074 -1.0432 -5.8185 -22.2287 -0.0010 0.2056 -0.5648 -0.2616 -1.2461 2.7784 3.5769 -1.5708 -1.5383 3.9233 -0.7400 -3.0353 -2.6916 -3.0285 -16.8138 2.2398 -3.8157 12.3783 0.7570 -1.7739 6.6190 -0.0000 -0.0000 0.0000 -91.2634 6.2561 16.7121 15.0032 -24.1506 -3.2272 -0.0000 -0.0000 6.1044 9.3153 42.3244 6.3026 -7.1250 0.0000 -0.0000 -39.6135 68.8432 -23.9854 -0.0000 -0.0000 0.0000 84.9404 -5.1067 12.6457 -13.6468 22.2275 -2.6930 0.0000 -0.0000 -13.9114 -17.8401 15.1370 -4.8039 7.1250 -0.0000 -0.0000 6.5813 -14.1901 4.7995
1.8639 17.5759 -35.5212 -3.0980 4.0632 4.0313 0.0000 0.0000 0.0000 -15.3988 -7.7384 -7.1028 1.6648 8.1299 23.1092 1.2234 -3.4094 -20.0578 0.0141 -0.7674 -2.1089 0.0000 0.0000 0.0000 20.5912 1.5273 -7.3103 -1.4948 -7.7233 21.8768 -1.0922 -5.2737 -22.3079 -0.0012 -0.2267 0.6228 -0.2640 -1.1720 2.8491 3.5387 -1.4731 -1.4890 3.8807 -0.6920 -3.0319 -2.6478 -3.0232 -16.9295 2.1229 -3.7971 12.3904 0.7127 -1.7722 6.6384 0.0000 0.0000 0.0000 -91.3407 6.1520 16.8651 15.1414 -24.3427 -3.2840 -0.0000 -0.0000 5.9972 9.0074 41.3076 5.9735 -7.1250 0.0000 -0.0000 -38.1438 67.9905 -22.2942 0.0000 0.0000 0.0000 84.9362 -5.0772 12.5453 -13.5863 22.1402 -2.6702 0.0000 -0.0000 -13.6990 -18.2385 15.4114 -5.0047 7.1250 -0.0000 -0.0000 6.3207 -13.8657 4.6507
